<?xml version="1.0" standalone="no"?>
<!DOCTYPE svg PUBLIC "-//W3C//DTD SVG 20010904//EN"
 "http://www.w3.org/TR/2001/REC-SVG-20010904/DTD/svg10.dtd">
<svg version="1.0" xmlns="http://www.w3.org/2000/svg"
 width="370.000000pt" height="265.000000pt" viewBox="0 0 370.000000 265.000000"
 preserveAspectRatio="xMidYMid meet">

<g transform="translate(0.000000,265.000000) scale(0.100000,-0.100000)"
fill="#000000" stroke="none">
<path d="M0 2334 c0 -297 1 -316 17 -309 24 9 101 26 138 30 17 2 54 8 84 14
29 6 56 11 58 11 2 0 1 5 -2 10 -3 6 0 12 7 14 66 21 162 61 174 74 13 12 20
13 35 4 21 -14 49 -16 49 -4 0 16 42 34 53 23 14 -14 107 -15 107 -1 0 6 36
10 88 10 81 1 172 16 188 33 4 4 26 7 49 7 22 0 47 6 54 13 11 10 14 10 18 0
6 -17 23 -16 59 2 22 11 80 16 222 19 105 2 196 7 201 10 5 4 13 1 16 -4 5 -8
13 -6 25 5 17 15 19 15 29 -2 6 -11 11 -13 11 -5 0 11 38 12 196 6 156 -6 198
-4 204 6 5 8 15 10 26 5 13 -5 15 -9 7 -12 -7 -3 -13 -8 -13 -13 0 -10 59 -19
62 -9 2 4 22 9 45 10 29 2 48 -2 61 -15 13 -11 22 -14 27 -7 9 16 124 14 131
-2 3 -9 22 -12 69 -9 44 3 65 1 65 -7 0 -7 20 -11 49 -11 27 0 62 -5 77 -10
20 -8 29 -8 35 1 5 9 15 9 39 0 41 -14 40 -14 40 4 0 13 7 15 38 9 45 -8 51
-12 32 -24 -8 -5 -11 -13 -6 -17 5 -4 11 -2 13 4 6 17 227 6 267 -13 16 -8 41
-14 56 -14 15 0 41 -7 56 -15 18 -9 57 -15 100 -15 43 0 87 -6 110 -16 20 -9
49 -17 63 -18 14 -2 26 -7 26 -12 0 -20 18 -35 36 -31 12 3 23 -2 29 -13 8
-14 57 -40 76 -40 2 0 4 144 4 320 l0 320 -1850 0 -1850 0 0 -316z"/>
<path d="M1511 1562 c-18 -13 -24 -13 -31 -2 -6 10 -15 8 -43 -9 -19 -12 -41
-29 -48 -38 -13 -15 -12 -15 8 -5 12 7 37 12 56 12 59 0 96 11 90 26 -4 10 0
12 11 8 9 -3 16 -2 16 4 0 17 -35 20 -59 4z"/>
<path d="M1487 1467 c-10 -10 -15 -22 -12 -27 3 -5 -13 -18 -37 -30 -50 -24
-54 -25 -38 -5 10 13 9 15 -11 15 -22 1 -22 2 6 15 l30 14 -45 -5 c-34 -3 -40
-2 -24 5 28 12 40 31 21 31 -39 0 -107 -125 -107 -197 0 -25 -11 -29 -41 -12
-32 17 -49 -5 -49 -63 0 -27 -5 -59 -12 -71 -8 -15 -11 -86 -9 -232 1 -115 0
-207 -4 -203 -7 7 -55 -38 -55 -52 0 -6 -4 -10 -10 -10 -5 0 -10 7 -10 15 0
20 -6 19 -30 -5 -11 -11 -26 -20 -34 -20 -16 0 -29 -27 -20 -41 3 -5 16 -6 28
-3 20 5 27 -1 46 -43 29 -60 29 -60 40 -44 11 19 44 5 36 -15 -3 -9 3 -27 14
-41 11 -14 20 -35 20 -47 0 -12 5 -27 10 -32 14 -14 -3 -97 -56 -273 -5 -15
-20 7 -37 53 -6 16 -4 17 18 12 28 -7 35 13 11 33 -11 10 -16 8 -24 -5 -8 -15
-13 -16 -25 -6 -8 7 -22 10 -31 6 -9 -3 -16 -3 -16 0 0 12 52 56 65 56 19 0
26 28 13 50 -9 14 -9 22 1 33 6 9 8 18 3 21 -5 3 -16 -4 -25 -15 -45 -52 -97
10 -76 91 5 20 -46 26 -67 9 -9 -7 -46 -14 -84 -15 -54 -2 -70 1 -74 13 -5 12
-15 14 -43 10 -53 -9 -62 2 -49 62 6 33 16 51 27 54 12 3 15 12 12 30 -6 31 8
40 65 43 24 2 50 9 59 15 8 7 30 13 49 14 48 1 65 21 30 36 -22 11 -35 10 -78
-6 -56 -20 -163 -24 -181 -6 -19 19 -47 12 -57 -14 -5 -14 -25 -32 -44 -41
-31 -15 -33 -19 -24 -40 13 -29 -4 -54 -37 -54 -26 0 -75 -42 -75 -65 0 -8 -6
-15 -13 -15 -7 0 -21 -6 -31 -13 -16 -12 -16 -15 8 -57 33 -58 32 -65 -5 -68
-18 -1 -28 2 -24 7 3 6 -3 19 -15 31 -11 11 -20 27 -20 36 0 11 -6 14 -20 9
-28 -9 -25 11 5 39 14 13 25 30 25 38 0 8 9 23 20 33 11 10 20 28 20 41 0 29
15 38 69 40 44 2 61 14 61 47 0 14 -4 16 -19 7 -25 -13 -44 -13 -36 0 3 6 -1
10 -10 10 -9 0 -13 -4 -10 -10 3 -5 -2 -10 -12 -11 -10 0 -28 -2 -40 -5 -17
-3 -21 0 -16 11 4 13 -2 15 -33 11 -21 -3 -40 -10 -42 -16 -2 -5 -10 -10 -17
-10 -17 0 -38 36 -30 50 9 15 -105 124 -117 112 -17 -17 0 -62 27 -74 31 -14
32 -29 3 -25 -20 2 -23 -4 -30 -53 -10 -78 22 -200 52 -200 19 0 10 -21 -15
-32 -19 -8 -28 -8 -40 2 -8 7 -12 16 -9 21 12 20 -55 84 -86 81 -3 0 -13 4
-22 9 -17 9 -18 -6 -18 -251 l0 -260 49 0 c37 0 50 4 56 18 6 16 7 16 19 0 19
-26 49 -24 41 2 -4 12 -1 27 5 35 6 8 9 19 5 25 -11 17 15 40 46 40 15 0 32 6
36 14 6 11 74 46 89 46 2 0 2 -24 0 -53 -3 -49 -4 -52 -29 -50 -15 1 -27 -2
-27 -8 0 -5 7 -9 15 -9 10 0 15 -10 15 -30 0 -26 4 -30 26 -30 19 0 25 4 21
15 -4 8 -1 17 4 21 6 3 8 17 4 31 -4 16 -1 32 8 42 8 9 18 46 22 83 6 66 21
88 43 66 6 -6 8 -17 5 -24 -3 -9 2 -14 12 -14 11 0 15 5 12 14 -4 10 0 12 14
9 12 -3 19 0 19 8 0 8 7 23 15 33 12 16 17 17 30 6 8 -7 14 -18 13 -24 -3 -15
33 -56 49 -56 16 0 17 42 2 57 -7 7 -5 15 7 27 16 17 19 13 57 -63 30 -61 38
-84 29 -93 -8 -8 -15 -8 -26 1 -21 18 -36 5 -36 -30 0 -16 -4 -29 -10 -29 -5
0 -10 -9 -10 -21 0 -18 4 -20 27 -15 16 4 34 15 41 24 17 23 44 5 57 -37 l9
-32 326 5 c330 4 366 5 387 19 6 4 18 4 26 1 9 -3 26 1 39 9 13 8 40 17 60 20
33 5 40 2 58 -24 l21 -29 1010 0 1009 0 0 406 c0 361 -2 405 -15 400 -9 -3
-39 -1 -68 5 -45 10 -61 20 -118 80 l-66 69 -81 -7 c-66 -5 -88 -3 -119 12
-55 27 -132 55 -177 66 -29 7 -49 6 -80 -5 -23 -8 -96 -17 -166 -20 -69 -3
-144 -11 -168 -16 -29 -7 -70 -7 -120 -1 -71 8 -155 7 -210 -5 -18 -4 -22 -9
-17 -24 10 -30 -23 -25 -37 5 -11 25 -15 26 -67 20 -148 -15 -137 -11 -154
-63 -9 -26 -23 -87 -32 -137 -10 -49 -21 -97 -26 -106 -11 -22 -92 -59 -127
-59 -16 0 -37 9 -47 20 -10 11 -13 20 -7 20 7 0 12 5 12 10 0 6 -7 10 -15 10
-18 0 -20 16 -2 23 8 4 8 6 0 6 -6 1 -17 17 -23 36 -10 30 -9 40 4 60 9 14 20
25 24 25 5 0 14 16 22 35 7 19 20 35 28 37 9 2 16 18 18 42 4 45 14 60 53 76
28 11 41 34 41 76 0 11 11 31 24 43 14 13 28 40 31 62 4 21 15 49 24 61 10 13
21 45 24 73 4 44 3 47 -9 31 -7 -10 -24 -49 -36 -85 -20 -57 -23 -62 -26 -36
-1 17 -6 37 -9 45 -6 14 -7 23 -11 61 -1 8 -10 24 -21 35 -10 11 -24 30 -30
42 -7 13 -16 20 -22 17 -5 -4 -8 -1 -7 7 2 7 -6 13 -17 13 -11 0 -20 -4 -21
-10 0 -5 -3 -17 -6 -25 -14 -36 -15 -60 -2 -71 8 -6 14 -18 14 -26 0 -12 -3
-12 -16 1 -8 9 -21 16 -29 16 -18 0 -26 25 -12 41 7 7 2 5 -10 -5 -13 -11 -23
-25 -23 -33 0 -22 -39 -14 -56 12 -13 20 -20 23 -35 14 -11 -5 -17 -14 -14
-20 4 -5 -1 -9 -9 -9 -11 0 -13 8 -9 35 6 39 -15 57 -41 35 -11 -8 -20 -9 -36
0 -27 14 -16 32 18 27 15 -2 38 0 52 4 21 6 18 7 -17 8 -23 1 -44 7 -47 14 -5
10 -7 10 -12 0 -7 -15 -34 -18 -34 -4 0 5 6 11 13 14 6 3 1 4 -13 4 -13 -1
-33 -10 -43 -20z m436 -107 c-7 -10 -10 -26 -7 -35 10 -25 -10 -17 -23 10 -9
20 -8 25 3 25 10 0 9 8 -6 33 -29 48 -24 56 12 19 28 -28 31 -35 21 -52z
m-413 31 c0 -5 -7 -11 -14 -14 -10 -4 -13 -1 -9 9 6 15 23 19 23 5z m-50 -5
c0 -2 -7 -6 -15 -10 -8 -3 -15 -1 -15 4 0 6 7 10 15 10 8 0 15 -2 15 -4z m117
-41 c12 -19 18 -35 13 -35 -5 0 -12 5 -15 10 -3 6 -21 10 -38 11 -29 0 -30 1
-9 9 24 10 29 26 10 33 -9 4 -8 6 2 6 8 0 25 -15 37 -34z m-120 9 c-3 -3 -12
-4 -19 -1 -8 3 -5 6 6 6 11 1 17 -2 13 -5z m506 -61 c2 -5 1 -19 -4 -33 -7
-25 -7 -25 -8 4 -1 20 -5 27 -16 23 -8 -4 -17 -2 -20 3 -4 6 5 10 19 10 14 0
27 -3 29 -7z m-403 -28 c0 -10 -9 -15 -27 -14 -24 2 -25 2 -5 6 12 2 22 9 22
14 0 5 2 9 5 9 3 0 5 -7 5 -15z m74 -7 c-3 -4 -19 -8 -35 -8 -17 0 -28 4 -24
9 3 5 19 9 35 9 16 -1 27 -5 24 -10z m247 -55 c-9 -16 -10 -14 -11 12 0 21 3
26 11 18 8 -8 8 -16 0 -30z m40 -66 c-10 -9 -11 -8 -5 6 3 10 9 15 12 12 3 -3
0 -11 -7 -18z m29 -6 c0 -5 -7 -12 -16 -15 -14 -5 -15 -4 -4 9 14 17 20 19 20
6z m-705 -71 c3 -6 -1 -7 -9 -4 -18 7 -21 14 -7 14 6 0 13 -4 16 -10z m15 -24
c0 -2 -7 -7 -16 -10 -8 -3 -12 -2 -9 4 6 10 25 14 25 6z m170 -114 c0 -8 -8
-8 -29 -1 -22 8 -33 21 -44 54 l-15 43 44 -42 c24 -24 44 -48 44 -54z m1193
-10 c8 -11 -40 -62 -58 -62 -19 0 -19 4 0 40 15 28 47 40 58 22z m7 -92 c0 -5
-5 -10 -11 -10 -5 0 -7 5 -4 10 3 6 8 10 11 10 2 0 4 -4 4 -10z m-1077 -62 c6
-22 5 -22 -8 -4 -17 22 -20 40 -6 32 5 -3 11 -16 14 -28z m1257 22 c0 -5 -4
-10 -10 -10 -5 0 -10 5 -10 10 0 6 5 10 10 10 6 0 10 -4 10 -10z m-1177 -29
c8 -8 -28 -51 -42 -51 -9 0 -21 33 -21 58 0 13 46 7 63 -7z m670 -130 c27 -11
32 -22 43 -93 7 -56 -7 -64 -43 -21 -28 32 -29 43 -3 50 11 3 17 9 14 14 -3 5
-9 7 -14 4 -14 -9 -50 18 -50 37 0 20 17 23 53 9z m-1687 -97 c-6 -31 -9 -35
-21 -23 -8 8 -17 26 -20 41 -5 20 -3 27 12 30 28 7 36 -7 29 -48z m64 25 c0
-10 -12 -11 -34 -3 -25 10 -19 22 9 16 14 -2 25 -8 25 -13z m-190 -138 c0 -24
-26 -34 -53 -20 -20 11 -20 12 -2 25 27 20 55 18 55 -5z m1745 10 c3 -5 1 -12
-5 -16 -5 -3 -10 1 -10 9 0 18 6 21 15 7z m-2208 -43 c-3 -8 -6 -5 -6 6 -1 11
2 17 5 13 3 -3 4 -12 1 -19z m683 -15 c15 -20 18 -29 9 -32 -13 -4 -49 33 -49
50 0 17 19 9 40 -18z m1998 15 c-3 -7 -18 -14 -34 -16 -16 -1 -53 -7 -81 -13
-42 -8 -53 -14 -53 -30 0 -14 -7 -19 -25 -19 -14 0 -25 -4 -25 -10 0 -5 -4
-10 -10 -10 -12 0 -13 50 -1 68 4 8 17 13 27 12 11 -1 21 -1 24 0 18 8 121 27
148 29 23 1 32 -3 30 -11z m-2121 -33 c3 -9 3 -18 1 -21 -9 -9 -38 8 -38 22 0
19 29 18 37 -1z m233 -6 c0 -19 -24 -59 -34 -56 -18 6 -23 51 -7 63 16 12 41
8 41 -7z m138 3 c7 -5 15 -25 19 -45 7 -45 -10 -71 -37 -57 -23 12 -35 75 -18
95 15 17 19 17 36 7z m871 -63 c11 -31 9 -53 -11 -117 -9 -32 -11 -32 -28 -17
-10 9 -16 23 -13 31 3 8 1 14 -4 14 -14 0 -11 69 4 74 7 3 13 15 13 26 0 31
27 24 39 -11z m391 21 c0 -5 -6 -10 -12 -10 -7 0 -22 -3 -33 -6 -11 -3 -29 2
-40 10 -19 14 -17 15 33 16 28 0 52 -4 52 -10z m-1337 -13 c3 -8 1 -20 -4 -28
-11 -19 -34 3 -26 25 8 20 23 21 30 3z m2785 -58 c-16 -10 -33 5 -23 21 5 8
11 8 21 -1 12 -10 12 -14 2 -20z m-2628 -119 c-21 -14 -30 -12 -30 4 0 18 22
27 35 14 6 -6 5 -12 -5 -18z m1310 0 c0 -5 -4 -10 -9 -10 -6 0 -13 5 -16 10
-3 6 1 10 9 10 9 0 16 -4 16 -10z m-1353 -62 c-3 -8 -6 -5 -6 6 -1 11 2 17 5
13 3 -3 4 -12 1 -19z"/>
<path d="M1795 1420 c3 -5 8 -10 11 -10 2 0 4 5 4 10 0 6 -5 10 -11 10 -5 0
-7 -4 -4 -10z"/>
<path d="M2121 1274 c0 -11 3 -14 6 -6 3 7 2 16 -1 19 -3 4 -6 -2 -5 -13z"/>
<path d="M0 827 c1 -33 3 -38 11 -24 5 9 19 17 29 17 29 0 24 12 -10 32 l-30
17 0 -42z"/>
<path d="M80 606 c0 -9 5 -16 10 -16 6 0 10 4 10 9 0 6 -4 13 -10 16 -5 3 -10
-1 -10 -9z"/>
<path d="M860 590 c0 -5 5 -10 10 -10 6 0 10 5 10 10 0 6 -4 10 -10 10 -5 0
-10 -4 -10 -10z"/>
<path d="M890 481 c0 -33 16 -49 33 -32 7 7 7 18 -1 36 -16 34 -32 32 -32 -4z"/>
<path d="M1020 450 c0 -5 5 -10 10 -10 6 0 10 5 10 10 0 6 -4 10 -10 10 -5 0
-10 -4 -10 -10z"/>
<path d="M441 77 c-6 -8 -8 -17 -4 -20 3 -4 0 -13 -6 -21 -7 -8 -10 -20 -6
-26 9 -15 35 -12 35 4 0 7 3 28 6 45 7 33 -5 41 -25 18z"/>
</g>
</svg>
